<svg width="11" height="8" viewBox="0 0 11 8" fill="none" xmlns="http://www.w3.org/2000/svg">
<path d="M4.6 1H3.4C3.2 1 3 1.2 3 1.4V7.6C3 7.8 3.2 8 3.4 8H4.6C4.8 8 5 7.8 5 7.6V1.4C5 1.2 4.8 1 4.6 1ZM1.6 5H0.4C0.2 5 0 5.2 0 5.4V7.6C0 7.8 0.2 8 0.4 8H1.6C1.8 8 2 7.8 2 7.6V5.4C2 5.2 1.8 5 1.6 5ZM10.6 0H9.4C9.2 0 9 0.2 9 0.4V7.6C9 7.8 9.2 8 9.4 8H10.6C10.8 8 11 7.8 11 7.6V0.4C11 0.2 10.8 0 10.6 0ZM7.6 3H6.4C6.2 3 6 3.2 6 3.4V7.6C6 7.8 6.2 8 6.4 8H7.6C7.8 8 8 7.8 8 7.6V3.4C8 3.2 7.8 3 7.6 3Z" fill="#213F7D"/>
</svg>
